# xmcd
#
# Track frame offsets:
#  150
#  10602
#  24982
#  32610
#  49265
#  61307
#  76562
#  87652
#  100462
#  113197
#  129540
#  142667
#  154920
#  166325
#  178320
#  195295
#  210557
#  226027
#  239255
#
# Disc length: 3374 seconds
#
# Revision: 0
# Processed by: cddbd v1.5.2PL0 Copyright (c) Steve Scherf et al.
# Submitted via: AltoMP3_Maker 3.0
#
DISCID=e80d2c13
DTITLE=Starline Rhythm Boys - Honky-Tonk Livin'
DYEAR=1900
DGENRE=
TTITLE0=Masquerade for Heartache
TTITLE1=Honky-Tonk Livin'
TTITLE2=Give Me a Double
TTITLE3=She Don't Live Here No More
TTITLE4=Keep the Home Fires Burning
TTITLE5=True What They Say about You
TTITLE6=Smart Thinkin'
TTITLE7=The Tavern Parking Lot
TTITLE8=Temptation to Ask
TTITLE9=Walking the Chalk Line
TTITLE10=Somebody Up There Loves Me
TTITLE11=Where They Ring That Bell
TTITLE12=Dreama
TTITLE13=Barbecue Joe's
TTITLE14=Chitlin' Cookin' Time in Cheatum County
TTITLE15=One Small Favor
TTITLE16=Prelude to the Blues
TTITLE17=Floodin' My Mind with You
TTITLE18=I'll Keep Movin' On
EXTD=
EXTT0=
EXTT1=
EXTT2=
EXTT3=
EXTT4=
EXTT5=
EXTT6=
EXTT7=
EXTT8=
EXTT9=
EXTT10=
EXTT11=
EXTT12=
EXTT13=
EXTT14=
EXTT15=
EXTT16=
EXTT17=
EXTT18=
PLAYORDER=
